<mxfile host="app.diagrams.net" modified="2023-05-20T15:16:33.636Z" agent="Mozilla/5.0 (Windows NT 10.0; Win64; x64) AppleWebKit/537.36 (KHTML, like Gecko) Chrome/113.0.0.0 Safari/537.36" etag="5oKXliYTQxN1hiQCvTnh" version="21.3.2" type="device">
  <diagram name="Page-1" id="LaEWCWMan3-IQ4nCzoDM">
    <mxGraphModel dx="2072" dy="1114" grid="1" gridSize="10" guides="1" tooltips="1" connect="1" arrows="1" fold="1" page="1" pageScale="1" pageWidth="850" pageHeight="1100" math="0" shadow="0">
      <root>
        <mxCell id="0" />
        <mxCell id="1" parent="0" />
      </root>
    </mxGraphModel>
  </diagram>
</mxfile>
